<?xml version="1.0" standalone="no"?>
<!DOCTYPE svg PUBLIC "-//W3C//DTD SVG 20010904//EN"
 "http://www.w3.org/TR/2001/REC-SVG-20010904/DTD/svg10.dtd">
<svg version="1.0" xmlns="http://www.w3.org/2000/svg"
 width="300.000000pt" height="240.000000pt" viewBox="0 0 300.000000 240.000000"
 preserveAspectRatio="xMidYMid meet">
<metadata>
Created by potrace 1.10, written by Peter Selinger 2001-2011
</metadata>
<g transform="translate(0.000000,240.000000) scale(0.100000,-0.100000)"
fill="#000000" stroke="none">
<path d="M1538 2313 c7 -3 16 -2 19 1 4 3 -2 6 -13 5 -11 0 -14 -3 -6 -6z"/>
<path d="M1766 2213 c-6 -14 -5 -15 5 -6 7 7 10 15 7 18 -3 3 -9 -2 -12 -12z"/>
<path d="M1406 2203 c-6 -14 -5 -15 5 -6 7 7 10 15 7 18 -3 3 -9 -2 -12 -12z"/>
<path d="M241 2184 c-42 -21 -57 -36 -72 -68 -30 -66 -21 -114 33 -163 122
-112 361 -26 334 122 -22 113 -173 169 -295 109z m172 -1 c18 -10 34 -21 35
-26 2 -4 7 -5 12 -2 12 8 60 -46 61 -69 4 -68 -15 -111 -57 -126 -13 -5 -24
-14 -24 -19 0 -6 -18 -16 -41 -22 -34 -11 -42 -10 -50 2 -6 10 -9 10 -9 2 0
-7 -9 -13 -21 -13 -11 0 -17 4 -14 10 3 5 0 8 -7 5 -7 -3 -36 9 -65 25 -39 23
-51 34 -46 47 4 10 2 14 -4 10 -17 -10 -21 71 -6 101 17 31 53 63 64 56 5 -3
9 0 9 6 0 6 5 8 10 5 6 -3 10 -2 10 4 0 9 29 15 88 19 13 1 38 -6 55 -15z"/>
<path d="M230 2100 c-13 -9 -10 -14 15 -35 25 -21 27 -25 12 -31 -10 -3 -25 0
-34 7 -14 12 -16 12 -11 -1 2 -8 17 -16 31 -18 37 -4 49 26 19 46 -28 18 -29
35 -2 27 11 -4 20 -2 20 4 0 14 -30 14 -50 1z"/>
<path d="M295 2068 c8 -48 12 -58 25 -58 12 0 64 89 57 96 -3 3 -16 -14 -28
-38 l-23 -43 -9 43 c-6 23 -14 42 -19 42 -6 0 -7 -17 -3 -42z"/>
<path d="M396 2091 c-10 -11 -16 -30 -14 -43 2 -18 10 -24 36 -26 29 -3 32 -1
32 22 0 19 -5 26 -20 26 -11 0 -20 -4 -20 -10 0 -5 7 -10 16 -10 8 0 12 -4 9
-10 -9 -15 -32 -12 -39 6 -10 25 12 56 35 49 11 -4 19 -2 19 4 0 18 -36 12
-54 -8z"/>
<path d="M683 2158 c-5 -29 -7 -57 -4 -63 3 -5 9 17 13 49 10 75 3 85 -9 14z"/>
<path d="M1123 2198 c-21 -27 -34 -58 -23 -58 5 0 10 7 10 15 0 8 9 24 20 35
11 11 16 20 11 20 -5 0 -13 -6 -18 -12z"/>
<path d="M1646 2194 c-9 -24 -2 -26 12 -4 7 11 8 20 3 20 -5 0 -12 -7 -15 -16z"/>
<path d="M1803 2167 c-5 -24 -6 -52 -3 -62 4 -12 9 2 13 40 7 72 4 80 -10 22z"/>
<path d="M1847 2189 c7 -7 15 -10 18 -7 3 3 -2 9 -12 12 -14 6 -15 5 -6 -5z"/>
<path d="M2227 2173 c-27 -55 19 -112 53 -66 12 15 12 16 0 6 -8 -7 -22 -13
-32 -13 -14 0 -18 7 -16 33 1 17 5 40 10 50 5 9 6 17 4 17 -3 0 -12 -12 -19
-27z"/>
<path d="M2551 2197 c2 -1 13 -9 24 -17 19 -14 19 -14 6 3 -7 9 -18 17 -24 17
-6 0 -8 -1 -6 -3z"/>
<path d="M647 2171 c-4 -17 -3 -21 5 -13 5 5 8 16 6 23 -3 8 -7 3 -11 -10z"/>
<path d="M746 2169 c4 -20 -1 -31 -22 -48 -15 -11 -22 -21 -17 -21 5 0 20 11
33 25 20 21 21 28 12 47 -11 22 -11 22 -6 -3z"/>
<path d="M2522 2153 c-1 -17 -5 -38 -8 -46 -4 -12 0 -14 16 -10 12 3 17 9 12
12 -6 3 -12 22 -15 41 l-4 35 -1 -32z"/>
<path d="M827 2155 c-4 -8 -2 -17 3 -20 6 -4 10 3 10 14 0 25 -6 27 -13 6z"/>
<path d="M1170 2161 c0 -6 4 -13 10 -16 6 -3 7 1 4 9 -7 18 -14 21 -14 7z"/>
<path d="M1401 2144 c-30 -38 -50 -99 -65 -199 -9 -60 -23 -110 -44 -151 -16
-33 -38 -86 -47 -117 -19 -66 -30 -75 -21 -17 5 35 3 44 -19 66 -14 14 -30 22
-36 18 -6 -3 -21 -1 -34 6 -30 16 -72 6 -80 -20 -3 -11 -13 -20 -20 -20 -8 0
-22 -11 -31 -25 -18 -28 -12 -57 22 -98 26 -31 60 -135 80 -247 11 -60 11
-103 2 -213 -9 -107 -8 -153 1 -207 17 -94 70 -174 150 -228 56 -37 58 -40 45
-63 -37 -66 -56 -137 -56 -210 -1 -93 22 -149 80 -201 95 -86 251 -72 276 24
12 47 -6 78 -73 125 -30 21 -63 50 -73 64 -27 36 -33 97 -15 141 l15 37 54
-15 c29 -8 104 -17 167 -20 102 -4 116 -6 129 -25 26 -37 86 -22 184 46 134
94 149 111 148 170 -1 27 2 83 6 122 7 81 -4 155 -42 278 l-25 80 51 53 51 53
30 -22 c17 -12 33 -19 36 -15 9 8 -16 34 -39 42 -16 5 -18 11 -13 32 10 40 20
45 53 28 20 -10 33 -12 37 -6 4 6 -11 18 -32 28 -36 16 -38 19 -35 56 4 42 3
41 86 20 41 -10 30 12 -13 24 -21 7 -45 12 -54 12 -11 0 -18 18 -26 65 -7 36
-20 93 -31 128 -14 43 -20 92 -20 162 -1 121 -21 192 -62 215 -26 14 -31 13
-71 -8 -24 -12 -67 -43 -95 -68 l-52 -46 -64 11 c-34 6 -94 11 -132 11 l-69 0
-28 45 c-64 101 -142 134 -186 79z m103 -15 c14 -11 43 -46 64 -76 l38 -56 80
2 c43 1 106 -5 138 -13 l60 -14 59 53 c63 58 120 90 142 81 33 -12 48 -69 52
-186 3 -79 12 -143 28 -205 13 -49 26 -105 29 -122 l6 -33 -78 -1 c-94 -2
-134 -10 -140 -28 -3 -10 0 -12 14 -6 11 4 61 10 112 12 l92 6 0 -42 c0 -36
-3 -41 -17 -37 -75 24 -220 35 -208 16 3 -5 20 -10 37 -10 41 0 151 -19 167
-29 9 -6 9 -14 1 -32 l-11 -25 -67 22 c-87 28 -142 38 -142 25 0 -6 12 -13 28
-17 69 -15 162 -45 162 -54 0 -18 -56 -74 -108 -107 -56 -36 -65 -56 -13 -30
l31 15 26 -81 c32 -102 49 -227 40 -290 -6 -42 -9 -46 -26 -37 -48 26 -139 -6
-193 -67 -27 -31 -4 -37 24 -7 31 33 91 64 124 64 14 0 34 -9 45 -20 21 -21
28 -70 10 -70 -6 0 -15 -11 -20 -24 -5 -13 -30 -39 -57 -57 -26 -18 -70 -48
-97 -66 -26 -18 -61 -33 -76 -33 -31 0 -55 23 -47 45 4 8 2 17 -4 20 -5 4 -12
-1 -16 -11 -5 -15 -18 -16 -113 -10 -58 3 -133 13 -165 21 -59 16 -59 16 -77
-7 -36 -47 -36 -139 0 -188 10 -14 43 -42 73 -63 88 -62 101 -118 36 -157 -81
-50 -212 3 -258 105 -38 82 -17 244 42 326 12 17 20 31 18 32 -2 2 -21 12 -43
22 -59 30 -124 99 -154 163 -25 53 -27 66 -26 190 1 72 6 138 11 145 22 28
-44 348 -83 402 -46 65 -46 63 -34 85 8 14 18 20 30 17 13 -3 19 3 24 24 7 34
39 40 58 10 9 -15 15 -17 29 -8 28 17 48 -7 47 -56 -1 -55 17 -217 28 -242 4
-11 19 -38 33 -60 24 -38 25 -48 27 -195 2 -222 28 -291 109 -293 71 -2 94 52
95 216 0 71 -3 97 -12 97 -10 0 -13 -30 -13 -118 0 -73 -5 -125 -12 -137 -11
-18 -12 -18 -13 -2 0 9 -5 17 -11 17 -6 0 -9 -9 -6 -20 3 -13 -1 -24 -13 -30
-21 -11 -30 -4 -30 27 0 15 -4 22 -11 17 -6 -3 -9 -15 -6 -25 7 -26 -10 -14
-28 20 -21 42 -38 203 -30 289 l7 73 26 -17 c36 -24 98 -54 112 -54 23 0 7 16
-34 33 -79 32 -158 117 -180 194 -6 19 -2 22 39 28 25 4 45 12 45 17 0 7 -17
8 -45 5 -40 -6 -45 -5 -45 13 0 17 7 20 45 20 25 0 45 5 45 10 0 6 -20 10 -45
10 -39 0 -45 3 -45 21 0 20 4 21 48 15 43 -6 46 -5 28 9 -11 8 -30 15 -43 15
-13 0 -23 4 -23 8 0 17 39 122 68 184 17 36 32 89 36 125 9 79 33 160 58 196
23 33 55 35 92 6z"/>
<path d="M1410 2077 c-11 -24 -23 -77 -26 -117 l-7 -74 29 21 c16 11 37 23 47
26 9 4 17 14 17 23 0 13 3 14 13 5 22 -18 26 -3 12 54 -13 57 -38 105 -56 105
-5 0 -19 -20 -29 -43z m55 -54 c5 -25 2 -36 -14 -52 -34 -34 -43 -26 -35 27
11 78 35 91 49 25z"/>
<path d="M2024 2038 c-65 -69 -95 -130 -55 -108 27 14 34 13 27 -5 -4 -10 7
-21 32 -34 21 -11 45 -27 52 -36 13 -16 15 -16 21 2 11 28 10 133 -2 176 -13
47 -35 48 -75 5z m55 -85 c1 -51 0 -52 -21 -42 -13 6 -31 21 -41 34 -17 24
-17 25 15 61 28 32 33 34 39 18 4 -11 8 -43 8 -71z"/>
<path d="M1761 1941 c-6 -11 -11 -26 -10 -33 0 -7 5 0 11 16 8 21 13 25 19 15
6 -9 9 -10 9 -2 0 21 -19 24 -29 4z"/>
<path d="M1811 1924 c0 -11 3 -14 6 -6 3 7 2 16 -1 19 -3 4 -6 -2 -5 -13z"/>
<path d="M1861 1910 c14 -31 19 -36 19 -24 0 6 -7 19 -16 30 -14 18 -14 18 -3
-6z"/>
<path d="M1798 1877 c-10 -50 14 -61 53 -26 l24 21 -25 -16 c-35 -23 -43 -20
-38 14 5 35 -8 41 -14 7z"/>
<path d="M1693 1877 c-20 -25 -24 -41 -5 -18 19 23 20 23 25 5 4 -15 5 -16 6
-2 1 22 -14 31 -26 15z"/>
<path d="M1946 1882 c-3 -6 -2 -13 4 -17 5 -3 11 -16 11 -28 1 -14 3 -16 6 -6
5 21 -12 65 -21 51z"/>
<path d="M1483 1864 c-3 -8 -2 -19 3 -24 5 -5 9 1 9 16 0 28 -3 30 -12 8z"/>
<path d="M1891 1864 c0 -11 3 -14 6 -6 3 7 2 16 -1 19 -3 4 -6 -2 -5 -13z"/>
<path d="M1994 1859 c-3 -6 -2 -15 3 -20 5 -5 9 -1 9 11 0 23 -2 24 -12 9z"/>
<path d="M1560 1820 c0 -10 -8 -23 -17 -29 -10 -5 -15 -12 -12 -16 10 -10 39
24 39 46 0 10 -2 19 -5 19 -3 0 -5 -9 -5 -20z"/>
<path d="M2062 1794 c-7 -8 -8 -14 -3 -14 10 0 25 19 20 25 -2 1 -10 -3 -17
-11z"/>
<path d="M1102 1689 c1 -12 9 -24 16 -27 9 -3 13 3 10 19 -1 12 -9 24 -16 27
-9 3 -13 -3 -10 -19z"/>
<path d="M1153 1684 c-8 -20 13 -42 27 -28 12 12 3 44 -11 44 -5 0 -12 -7 -16
-16z"/>
<path d="M1365 1653 c4 -21 14 -46 22 -55 35 -39 103 -8 118 53 11 43 -13 44
-32 2 -14 -29 -24 -38 -43 -38 -20 0 -26 7 -33 38 -6 22 -15 37 -24 37 -12 0
-14 -8 -8 -37z"/>
<path d="M1062 1648 c2 -12 10 -23 18 -23 22 0 19 39 -3 43 -15 3 -18 -1 -15
-20z"/>
<path d="M1765 1660 c-10 -17 4 -62 27 -87 40 -43 102 -26 142 38 15 23 15 28
1 39 -12 10 -16 9 -21 -6 -12 -32 -46 -64 -70 -64 -26 0 -40 15 -49 53 -8 31
-21 42 -30 27z"/>
<path d="M1840 1666 c0 -2 8 -10 18 -17 15 -13 16 -12 3 4 -13 16 -21 21 -21
13z"/>
<path d="M1112 1628 c-12 -12 -16 -50 -7 -60 6 -6 70 14 81 25 10 10 -26 47
-46 47 -9 0 -21 -5 -28 -12z"/>
<path d="M2110 1610 c0 -11 2 -20 4 -20 2 0 6 9 9 20 3 11 1 20 -4 20 -5 0 -9
-9 -9 -20z"/>
<path d="M1686 1604 c-6 -15 -4 -15 11 -3 10 7 20 15 22 16 2 2 -3 3 -11 3 -9
0 -19 -7 -22 -16z"/>
<path d="M1560 1582 c0 -4 7 -17 15 -29 20 -28 10 -67 -19 -81 -19 -8 -23 -18
-22 -49 1 -34 4 -38 30 -41 22 -3 36 4 58 29 l30 32 -27 21 c-21 17 -25 27
-20 48 4 15 13 32 21 39 27 22 16 39 -26 39 -22 0 -40 -3 -40 -8z m30 -134 c0
6 5 12 10 12 14 0 13 -33 -2 -48 -15 -15 -48 -16 -48 -1 0 6 5 20 11 31 9 17
13 18 20 7 6 -10 9 -11 9 -1z"/>
<path d="M1961 1574 c0 -11 3 -14 6 -6 3 7 2 16 -1 19 -3 4 -6 -2 -5 -13z"/>
<path d="M1756 1404 c-9 -24 -2 -26 12 -4 7 11 8 20 3 20 -5 0 -12 -7 -15 -16z"/>
<path d="M1406 1399 c-7 -24 -17 -99 -12 -99 7 0 27 102 21 108 -2 3 -7 -1 -9
-9z"/>
<path d="M1804 1366 c-5 -24 -8 -49 -6 -55 6 -19 37 -12 62 14 20 21 22 28 12
50 -6 14 -16 25 -22 25 -7 0 -4 -7 4 -16 22 -21 20 -40 -6 -58 -35 -25 -40
-19 -33 34 8 62 3 65 -11 6z"/>
<path d="M1770 1371 c0 -7 -5 -9 -12 -5 -7 4 -10 4 -6 -1 4 -4 3 -17 -3 -27
-8 -15 -8 -23 2 -32 9 -8 10 -8 5 2 -4 7 0 24 9 38 9 14 14 28 11 32 -3 3 -6
0 -6 -7z"/>
<path d="M1170 1357 c0 -9 5 -17 10 -17 6 0 11 -10 11 -22 1 -17 3 -18 6 -6 2
10 -3 28 -11 40 -13 18 -16 19 -16 5z"/>
<path d="M1948 1360 c-3 -8 0 -23 6 -33 8 -13 8 -20 -4 -27 -10 -7 -11 -10 -2
-10 18 0 23 20 14 55 -6 20 -10 25 -14 15z"/>
<path d="M1230 1326 c0 -14 4 -27 8 -30 5 -3 6 8 4 25 -5 35 -12 38 -12 5z"/>
<path d="M1485 1329 c-4 -12 -3 -25 2 -30 6 -6 10 2 10 21 0 35 -3 38 -12 9z"/>
<path d="M1596 1333 c-4 -9 -3 -20 1 -24 4 -4 9 3 9 17 2 28 -1 31 -10 7z"/>
<path d="M1636 1333 c-4 -9 -3 -20 1 -24 4 -4 9 3 9 17 2 28 -1 31 -10 7z"/>
<path d="M1996 1333 c-4 -9 -3 -20 1 -24 4 -4 9 3 9 17 2 28 -1 31 -10 7z"/>
<path d="M1449 1323 c-13 -16 -12 -17 4 -4 9 7 17 15 17 17 0 8 -8 3 -21 -13z"/>
<path d="M1706 1323 c-6 -14 -5 -15 5 -6 7 7 10 15 7 18 -3 3 -9 -2 -12 -12z"/>
<path d="M1887 1325 c-4 -8 -3 -16 1 -19 4 -3 9 4 9 15 2 23 -3 25 -10 4z"/>
<path d="M2075 1330 c3 -5 8 -10 11 -10 2 0 4 5 4 10 0 6 -5 10 -11 10 -5 0
-7 -4 -4 -10z"/>
<path d="M1681 1314 c0 -11 3 -14 6 -6 3 7 2 16 -1 19 -3 4 -6 -2 -5 -13z"/>
<path d="M1561 1293 c-1 -6 -4 -20 -7 -30 -5 -17 -5 -17 6 0 6 10 9 23 6 30
-3 9 -5 9 -5 0z"/>
<path d="M1943 1077 c-18 -45 -51 -110 -73 -143 -60 -92 -132 -157 -115 -104
3 11 2 20 -3 20 -5 0 -12 -9 -15 -20 -6 -22 -14 -24 -37 -10 -13 8 -13 13 -2
31 17 27 6 39 -13 13 -14 -19 -14 -18 -15 2 0 30 37 149 66 208 28 58 28 56
11 56 -16 0 -85 -173 -93 -234 -6 -41 -4 -48 24 -75 48 -49 84 -43 148 23 73
75 192 316 157 316 -5 0 -23 -37 -40 -83z"/>
<path d="M1400 1140 c-13 -8 -12 -10 3 -10 9 0 17 5 17 10 0 12 -1 12 -20 0z"/>
<path d="M1806 1108 c-3 -18 -8 -43 -10 -55 -3 -13 -1 -23 3 -23 9 0 25 99 18
107 -3 2 -7 -11 -11 -29z"/>
<path d="M1402 1095 c0 -16 2 -22 5 -12 2 9 2 23 0 30 -3 6 -5 -1 -5 -18z"/>
<path d="M1171 1100 c0 -8 6 -24 14 -34 19 -25 19 -9 0 24 -8 14 -14 19 -14
10z"/>
<path d="M1996 1063 c-4 -9 -3 -20 1 -24 4 -4 9 3 9 17 2 28 -1 31 -10 7z"/>
<path d="M1846 1055 c-11 -8 -15 -15 -9 -15 6 0 16 7 23 15 16 19 11 19 -14 0z"/>
<path d="M2035 1059 c-4 -6 -5 -12 -2 -15 2 -3 7 2 10 11 7 17 1 20 -8 4z"/>
<path d="M1390 1045 c0 -8 4 -15 10 -15 5 0 7 7 4 15 -4 8 -8 15 -10 15 -2 0
-4 -7 -4 -15z"/>
<path d="M1561 1030 c-1 -15 -6 -31 -13 -38 -9 -9 -9 -12 0 -12 13 0 26 43 19
62 -3 7 -6 2 -6 -12z"/>
<path d="M1402 820 c0 -14 2 -19 5 -12 2 6 2 18 0 25 -3 6 -5 1 -5 -13z"/>
<path d="M1267 800 c-3 -10 1 -24 7 -29 10 -8 11 -3 8 19 -5 35 -8 37 -15 10z"/>
<path d="M1330 805 c-6 -8 -10 -19 -8 -24 1 -6 8 1 15 14 13 28 11 31 -7 10z"/>
<path d="M1532 808 c-15 -15 -16 -38 -1 -38 5 0 7 5 4 10 -4 6 -1 17 5 25 15
18 9 20 -8 3z"/>
<path d="M1449 793 c-13 -16 -12 -17 4 -4 16 13 21 21 13 21 -2 0 -10 -8 -17
-17z"/>
<path d="M1483 795 c-3 -9 -3 -18 -1 -21 3 -3 8 4 11 16 6 23 -1 27 -10 5z"/>
<path d="M1565 801 c-3 -5 -2 -12 3 -15 5 -3 9 1 9 9 0 17 -3 19 -12 6z"/>
<path d="M1595 800 c-3 -5 -2 -18 4 -27 7 -14 9 -12 8 10 -2 30 -3 31 -12 17z"/>
<path d="M1841 790 c-13 -11 -19 -20 -13 -20 10 0 42 27 42 36 0 7 -4 5 -29
-16z"/>
<path d="M1636 775 c4 -8 10 -15 15 -15 4 0 6 7 3 15 -4 8 -10 15 -15 15 -4 0
-6 -7 -3 -15z"/>
<path d="M2027 775 c-7 -16 8 -29 23 -20 15 9 12 35 -4 35 -8 0 -16 -7 -19
-15z"/>
<path d="M2082 768 c-7 -7 -12 -16 -12 -20 0 -12 28 -10 36 3 10 17 -10 31
-24 17z"/>
<path d="M1435 749 c-11 -4 -16 -8 -11 -8 5 -1 3 -8 -4 -16 -10 -12 -10 -15 1
-16 8 0 24 -2 36 -3 15 -2 21 3 20 14 -2 25 -20 38 -42 29z"/>
<path d="M2004 726 c-6 -16 24 -56 43 -56 15 0 28 44 18 59 -9 16 -55 13 -61
-3z"/>
<path d="M1540 720 c-9 -6 -10 -10 -3 -10 6 0 15 5 18 10 8 12 4 12 -15 0z"/>
<path d="M1330 545 c-6 -8 -10 -19 -8 -24 1 -6 8 1 15 14 13 28 11 31 -7 10z"/>
<path d="M1405 340 c-3 -5 -1 -10 4 -10 6 0 11 5 11 10 0 6 -2 10 -4 10 -3 0
-8 -4 -11 -10z"/>
<path d="M1451 323 c7 -12 15 -20 18 -17 3 2 -3 12 -13 22 -17 16 -18 16 -5
-5z"/>
<path d="M1396 279 c-4 -23 -5 -44 -2 -46 2 -2 7 14 11 37 4 23 5 43 2 46 -2
3 -7 -14 -11 -37z"/>
<path d="M1485 269 c-4 -6 -5 -12 -2 -15 2 -3 7 2 10 11 7 17 1 20 -8 4z"/>
<path d="M1436 255 c-11 -8 -15 -15 -9 -15 6 0 16 7 23 15 16 19 11 19 -14 0z"/>
<path d="M1870 2156 c0 -8 -12 -24 -26 -35 -15 -12 -22 -21 -16 -21 15 0 52
41 52 57 0 7 -2 13 -5 13 -3 0 -5 -6 -5 -14z"/>
<path d="M1947 2155 c-4 -8 -2 -17 3 -20 6 -4 10 3 10 14 0 25 -6 27 -13 6z"/>
<path d="M2290 2157 c0 -9 5 -17 10 -17 6 0 10 -9 10 -19 0 -11 4 -22 9 -26 6
-3 6 7 1 27 -11 38 -30 60 -30 35z"/>
<path d="M929 2143 c-11 -15 -11 -16 1 -5 24 21 30 14 26 -30 -3 -25 -12 -48
-23 -56 -12 -10 -13 -13 -3 -10 22 7 41 48 38 82 -4 35 -20 43 -39 19z"/>
<path d="M989 2128 c-3 -22 -1 -34 4 -29 5 5 7 21 5 37 -3 27 -4 26 -9 -8z"/>
<path d="M1283 2153 c-7 -2 -12 -17 -12 -31 1 -21 2 -23 6 -7 3 11 10 26 15
33 11 13 10 13 -9 5z"/>
<path d="M2394 2134 c-4 -14 -2 -30 3 -35 5 -5 9 2 8 19 0 17 5 26 13 24 8 -1
11 2 7 8 -11 18 -24 11 -31 -16z"/>
<path d="M1022 2125 c0 -16 2 -22 5 -12 2 9 2 23 0 30 -3 6 -5 -1 -5 -18z"/>
<path d="M1227 2130 c-3 -11 -2 -22 2 -24 4 -3 8 6 9 20 2 29 -4 31 -11 4z"/>
<path d="M1326 2134 c-8 -21 -8 -34 2 -34 4 0 8 11 8 25 2 29 -1 32 -10 9z"/>
<path d="M1633 2135 c-3 -9 -3 -18 -1 -21 3 -3 8 4 11 16 6 23 -1 27 -10 5z"/>
<path d="M1746 2135 c-9 -26 -7 -32 5 -12 6 10 9 21 6 23 -2 3 -7 -2 -11 -11z"/>
<path d="M1887 2130 c-3 -11 -2 -22 2 -24 4 -3 8 6 9 20 2 29 -4 31 -11 4z"/>
<path d="M2571 2127 c-13 -21 -12 -21 5 -5 10 10 16 20 13 22 -3 3 -11 -5 -18
-17z"/>
<path d="M2605 2129 c-4 -12 -3 -25 2 -29 4 -5 8 4 9 21 1 34 -2 37 -11 8z"/>
<path d="M2642 2125 c-6 -14 -8 -25 -3 -25 8 0 23 41 17 47 -1 2 -8 -8 -14
-22z"/>
<path d="M2686 2135 c-3 -8 -1 -15 4 -15 6 0 10 7 10 15 0 8 -2 15 -4 15 -2 0
-6 -7 -10 -15z"/>
<path d="M2761 2123 c-1 -25 3 -33 17 -33 11 0 13 3 6 8 -7 4 -14 18 -17 32
-4 21 -4 20 -6 -7z"/>
<path d="M2806 2134 c-8 -21 -8 -34 2 -34 4 0 8 11 8 25 2 29 -1 32 -10 9z"/>
<path d="M766 2125 c-9 -26 -7 -32 5 -12 6 10 9 21 6 23 -2 3 -7 -2 -11 -11z"/>
<path d="M876 2125 c-9 -26 -7 -32 5 -12 6 10 9 21 6 23 -2 3 -7 -2 -11 -11z"/>
<path d="M1597 2125 c-4 -8 -3 -16 1 -19 4 -3 9 4 9 15 2 23 -3 25 -10 4z"/>
<path d="M1706 2123 c-6 -14 -5 -15 5 -6 7 7 10 15 7 18 -3 3 -9 -2 -12 -12z"/>
<path d="M2722 2120 c0 -14 2 -19 5 -12 2 6 2 18 0 25 -3 6 -5 1 -5 -13z"/>
<path d="M1104 2110 c1 -8 10 -16 21 -17 15 -1 15 0 3 3 -9 3 -19 11 -21 17
-2 7 -3 5 -3 -3z"/>
<path d="M832 2105 c-11 -12 -10 -15 3 -15 8 0 15 7 15 15 0 18 -2 18 -18 0z"/>
<path d="M2672 2062 c-11 -25 -11 -25 4 -10 9 9 15 21 13 27 -2 6 -10 -2 -17
-17z"/>
<path d="M2525 1908 c-16 -89 -16 -87 15 -76 16 5 35 17 42 26 11 14 10 14
-12 -1 -42 -29 -48 -23 -38 34 5 28 7 53 5 56 -3 2 -8 -15 -12 -39z"/>
<path d="M685 1900 c-4 -23 -5 -43 -2 -46 2 -3 7 14 11 37 4 23 5 44 2 46 -2
2 -7 -14 -11 -37z"/>
<path d="M2228 1906 c-13 -26 -14 -38 -5 -56 7 -13 19 -25 27 -28 12 -3 12 -2
-1 9 -9 8 -19 22 -22 32 -5 13 0 17 21 18 24 2 25 2 4 6 -22 4 -23 6 -7 29 8
13 12 24 7 24 -5 0 -15 -15 -24 -34z"/>
<path d="M738 1920 c17 -19 15 -40 -5 -64 -18 -21 -18 -21 5 -2 26 23 28 49 5
67 -15 11 -16 11 -5 -1z"/>
<path d="M2572 1916 c7 -8 15 -12 17 -11 5 6 -10 25 -20 25 -5 0 -4 -6 3 -14z"/>
<path d="M1104 1906 c-3 -8 -4 -25 -2 -38 3 -17 5 -13 9 15 5 38 2 47 -7 23z"/>
<path d="M820 1890 c0 -6 6 -19 13 -30 10 -17 9 -22 -3 -30 -10 -7 -11 -10 -2
-10 18 0 26 28 12 45 -6 8 -9 19 -5 25 3 5 1 10 -4 10 -6 0 -11 -5 -11 -10z"/>
<path d="M1170 1890 c0 -5 5 -10 11 -10 5 0 7 5 4 10 -3 6 -8 10 -11 10 -2 0
-4 -4 -4 -10z"/>
<path d="M2290 1886 c0 -9 4 -16 9 -16 5 0 12 -10 14 -22 l4 -23 2 23 c0 13
-6 30 -14 38 -13 14 -15 14 -15 0z"/>
<path d="M957 1878 c-2 -7 -1 -22 4 -33 6 -16 8 -14 8 13 1 33 -4 41 -12 20z"/>
<path d="M989 1862 c-3 -20 -2 -29 4 -23 5 5 7 19 5 32 -3 20 -5 19 -9 -9z"/>
<path d="M1128 1883 c7 -3 16 -2 19 1 4 3 -2 6 -13 5 -11 0 -14 -3 -6 -6z"/>
<path d="M1274 1875 c-3 -8 -4 -20 -2 -27 3 -7 7 -1 10 15 6 29 1 36 -8 12z"/>
<path d="M2397 1883 c-12 -12 -7 -40 10 -54 15 -13 15 -12 2 9 -13 21 -12 25
5 38 15 11 16 14 5 14 -9 0 -19 -3 -22 -7z"/>
<path d="M2655 1879 c-4 -6 -5 -12 -2 -15 2 -3 7 2 10 11 7 17 1 20 -8 4z"/>
<path d="M1224 1857 c-8 -19 -7 -23 6 -24 13 -1 16 5 12 23 -5 29 -5 29 -18 1z"/>
<path d="M2350 1861 c0 -11 4 -22 9 -25 4 -3 6 6 3 19 -5 30 -12 33 -12 6z"/>
<path d="M2722 1855 c0 -16 2 -22 5 -12 2 9 2 23 0 30 -3 6 -5 -1 -5 -18z"/>
<path d="M2807 1873 c-9 -9 -9 -43 1 -43 4 0 8 11 8 25 2 27 1 29 -9 18z"/>
<path d="M767 1863 c-4 -3 -7 -11 -7 -17 0 -6 5 -5 12 2 6 6 9 14 7 17 -3 3
-9 2 -12 -2z"/>
<path d="M2685 1828 c-4 -13 -15 -32 -24 -42 -15 -18 -15 -18 5 -8 12 6 24 24
27 39 7 35 1 42 -8 11z"/>
<path d="M1117 1829 c7 -7 15 -10 18 -7 3 3 -2 9 -12 12 -14 6 -15 5 -6 -5z"/>
<path d="M946 1804 c-4 -9 -4 -19 -1 -22 2 -3 7 3 11 12 4 9 4 19 1 22 -2 3
-7 -3 -11 -12z"/>
<path d="M242 1759 c-177 -88 -74 -310 132 -285 63 8 110 36 143 85 90 133
-113 280 -275 200z m191 -8 c15 -6 27 -16 27 -22 0 -7 3 -9 6 -6 10 10 45 -35
39 -50 -2 -8 0 -11 5 -8 14 9 13 -50 -2 -78 -6 -12 -14 -29 -18 -37 -4 -8 -16
-20 -27 -25 -12 -6 -27 -16 -34 -22 -19 -14 -159 -17 -159 -3 0 6 -4 8 -10 5
-5 -3 -10 -1 -10 5 0 6 -4 9 -9 6 -5 -3 -23 10 -40 29 -26 30 -31 44 -31 85 0
36 5 52 18 59 9 6 13 11 8 11 -17 0 49 50 66 50 9 0 19 4 22 8 7 12 114 6 149
-7z"/>
<path d="M230 1642 c0 -21 -5 -43 -12 -50 -9 -9 -3 -12 29 -12 23 0 45 5 48
10 4 6 -7 10 -25 10 -21 0 -30 4 -27 13 2 6 9 12 15 12 5 0 14 3 18 8 4 4 -2
7 -14 7 -12 0 -22 5 -22 10 0 6 13 10 29 10 17 0 33 5 36 10 4 6 -10 10 -34
10 -41 0 -41 0 -41 -38z"/>
<path d="M317 1638 c-3 -24 -2 -47 4 -52 5 -6 9 -2 9 12 0 12 4 22 9 22 15 0
41 30 41 46 0 9 -10 14 -29 14 -26 0 -29 -4 -34 -42z m53 22 c0 -5 -9 -14 -20
-20 -15 -8 -20 -8 -20 3 0 8 3 17 7 20 10 10 33 8 33 -3z"/>
<path d="M395 1663 c-4 -12 1 -23 14 -32 30 -19 26 -34 -6 -27 -26 6 -27 5 -9
-8 14 -11 24 -12 37 -5 24 12 24 18 -3 46 -23 25 -18 44 7 23 12 -10 15 -10
15 4 0 22 -46 21 -55 -1z"/>
<path d="M640 1686 c0 -2 7 -7 16 -10 8 -3 12 -2 9 4 -6 10 -25 14 -25 6z"/>
<path d="M2246 1672 c-2 -4 4 -8 14 -8 10 0 16 4 14 8 -3 4 -9 8 -14 8 -5 0
-11 -4 -14 -8z"/>
<path d="M2528 1673 c-2 -4 -5 -24 -6 -43 l-1 -35 10 39 c8 36 7 59 -3 39z"/>
<path d="M691 1654 c0 -11 3 -14 6 -6 3 7 2 16 -1 19 -3 4 -6 -2 -5 -13z"/>
<path d="M736 1645 c20 -30 24 -31 17 -6 -3 11 -11 22 -19 25 -11 4 -11 0 2
-19z"/>
<path d="M2568 1652 c9 -10 19 -17 21 -16 6 5 -20 34 -30 34 -5 0 -1 -8 9 -18z"/>
<path d="M2761 1644 c0 -11 3 -14 6 -6 3 7 2 16 -1 19 -3 4 -6 -2 -5 -13z"/>
<path d="M646 1633 c-6 -14 -5 -15 5 -6 7 7 10 15 7 18 -3 3 -9 -2 -12 -12z"/>
<path d="M2290 1628 c0 -8 7 -21 15 -28 19 -16 19 -1 0 24 -12 16 -15 17 -15
4z"/>
<path d="M679 1613 c0 -10 -2 -26 -4 -35 -2 -10 0 -18 4 -18 4 0 8 16 9 35 1
19 -1 35 -3 35 -3 0 -5 -8 -6 -17z"/>
<path d="M772 1605 c-14 -30 -12 -31 10 -5 10 10 14 22 9 24 -4 3 -13 -6 -19
-19z"/>
<path d="M920 1605 c-7 -9 -10 -18 -7 -21 3 -3 10 4 17 15 13 25 8 27 -10 6z"/>
<path d="M2248 1613 c7 -3 16 -2 19 1 4 3 -2 6 -13 5 -11 0 -14 -3 -6 -6z"/>
<path d="M2391 1601 c-12 -22 9 -47 31 -38 8 3 5 6 -6 6 -14 1 -17 7 -14 26 6
30 2 32 -11 6z"/>
<path d="M2806 1604 c-8 -21 -8 -34 2 -34 4 0 8 11 8 25 2 29 -1 32 -10 9z"/>
<path d="M732 1594 c-7 -8 -8 -14 -3 -14 10 0 25 19 20 25 -2 1 -10 -3 -17
-11z"/>
<path d="M877 1595 c-4 -8 -3 -16 1 -19 4 -3 9 4 9 15 2 23 -3 25 -10 4z"/>
<path d="M955 1601 c-3 -5 -1 -12 5 -16 5 -3 10 1 10 9 0 18 -6 21 -15 7z"/>
<path d="M2347 1590 c-3 -11 -1 -23 4 -26 5 -3 9 6 9 20 0 31 -6 34 -13 6z"/>
<path d="M2580 1603 c0 -5 -10 -15 -22 -21 -13 -6 -18 -11 -12 -11 16 -1 50
27 41 35 -4 4 -7 3 -7 -3z"/>
<path d="M2603 1594 c-3 -8 -2 -19 3 -24 5 -5 9 1 9 16 0 28 -3 30 -12 8z"/>
<path d="M2685 1600 c-3 -5 -1 -10 4 -10 6 0 11 5 11 10 0 6 -2 10 -4 10 -3 0
-8 -4 -11 -10z"/>
<path d="M2722 1585 c0 -16 2 -22 5 -12 2 9 2 23 0 30 -3 6 -5 -1 -5 -18z"/>
<path d="M841 1574 c0 -11 3 -14 6 -6 3 7 2 16 -1 19 -3 4 -6 -2 -5 -13z"/>
<path d="M2760 1577 c0 -10 8 -17 18 -17 9 0 13 4 7 8 -5 4 -13 11 -17 16 -5
5 -8 2 -8 -7z"/>
<path d="M2638 1573 c6 -2 18 -2 25 0 6 3 1 5 -13 5 -14 0 -19 -2 -12 -5z"/>
<path d="M2680 1545 c-5 -14 -15 -25 -21 -25 -7 0 -9 -3 -6 -6 9 -10 34 13 40
36 7 28 -2 25 -13 -5z"/>
<path d="M943 1534 c-6 -13 -7 -24 -3 -24 9 0 25 39 18 45 -2 2 -8 -7 -15 -21z"/>
<path d="M695 1410 c-3 -5 -8 -33 -10 -62 l-4 -53 9 49 c5 26 11 54 14 62 6
16 0 19 -9 4z"/>
<path d="M2525 1384 c-13 -59 -13 -64 -5 -64 7 0 20 81 14 89 -2 2 -6 -10 -9
-25z"/>
<path d="M732 1386 c7 -8 15 -12 17 -11 5 6 -10 25 -20 25 -5 0 -4 -6 3 -14z"/>
<path d="M2570 1385 c7 -9 15 -13 17 -11 7 7 -7 26 -19 26 -6 0 -6 -6 2 -15z"/>
<path d="M2780 1369 c0 -5 5 -7 10 -4 6 3 10 8 10 11 0 2 -4 4 -10 4 -5 0 -10
-5 -10 -11z"/>
<path d="M827 1355 c-4 -8 -2 -17 3 -20 6 -4 10 3 10 14 0 25 -6 27 -13 6z"/>
<path d="M2290 1363 c0 -7 5 -15 10 -18 6 -3 10 -15 10 -25 0 -10 4 -21 9 -25
6 -3 6 7 1 27 -10 34 -30 61 -30 41z"/>
<path d="M992 1330 c0 -19 2 -27 5 -17 2 9 2 25 0 35 -3 9 -5 1 -5 -18z"/>
<path d="M2403 1353 c-14 -5 -18 -53 -5 -53 5 0 8 10 8 23 -1 13 4 21 12 19 8
-1 11 2 7 8 -3 5 -7 10 -8 9 -1 0 -8 -3 -14 -6z"/>
<path d="M2677 1353 c17 -12 7 -85 -14 -100 -9 -7 -12 -13 -6 -13 32 0 54 108
23 117 -11 3 -11 2 -3 -4z"/>
<path d="M240 1328 c-140 -71 -109 -238 52 -279 97 -26 223 33 243 114 34 134
-151 237 -295 165z m207 -17 c47 -23 67 -46 57 -62 -4 -8 -3 -9 4 -5 24 15 19
-79 -5 -113 -51 -68 -163 -93 -249 -55 -55 24 -99 91 -90 138 6 30 66 112 66
90 0 -5 4 -3 9 4 22 35 142 37 208 3z"/>
<path d="M226 1209 c-9 -54 5 -69 42 -48 21 12 27 22 27 49 0 32 -3 35 -31 38
-30 3 -32 1 -38 -39z m60 6 c7 -18 -12 -45 -32 -45 -14 0 -20 41 -7 53 11 12
33 7 39 -8z"/>
<path d="M325 1218 c3 -21 1 -39 -5 -43 -5 -3 -10 -12 -10 -18 0 -7 7 -3 15 7
15 20 15 20 30 0 17 -22 21 -3 5 26 -7 13 -6 21 5 30 8 7 15 17 15 23 0 6 -8
4 -17 -5 -15 -16 -17 -16 -30 0 -13 15 -14 13 -8 -20z"/>
<path d="M394 1241 c-9 -9 -3 -91 7 -91 6 0 9 8 7 18 -2 11 6 21 22 29 l25 11
-28 1 c-34 1 -26 21 8 21 13 0 27 5 30 10 6 10 -61 10 -71 1z"/>
<path d="M877 1331 c-4 -17 -3 -21 5 -13 5 5 8 16 6 23 -3 8 -7 3 -11 -10z"/>
<path d="M1022 1325 c0 -16 2 -22 5 -12 2 9 2 23 0 30 -3 6 -5 -1 -5 -18z"/>
<path d="M2352 1325 c0 -16 2 -22 5 -12 2 9 2 23 0 30 -3 6 -5 -1 -5 -18z"/>
<path d="M2450 1335 c-6 -8 -10 -19 -8 -24 1 -6 8 1 15 14 13 28 11 31 -7 10z"/>
<path d="M2580 1341 c0 -6 -15 -18 -32 -26 -18 -8 -26 -14 -17 -15 22 0 66 36
57 46 -5 4 -8 2 -8 -5z"/>
<path d="M2606 1334 c-3 -9 -2 -22 2 -31 6 -10 9 -5 9 16 0 35 -2 38 -11 15z"/>
<path d="M2646 1335 c-9 -26 -7 -32 5 -12 6 10 9 21 6 23 -2 3 -7 -2 -11 -11z"/>
<path d="M2722 1325 c0 -16 2 -22 5 -12 2 9 2 23 0 30 -3 6 -5 -1 -5 -18z"/>
<path d="M2806 1334 c-8 -21 -8 -34 2 -34 4 0 8 11 8 25 2 29 -1 32 -10 9z"/>
<path d="M721 1320 c-13 -11 -19 -20 -14 -20 6 0 18 9 28 20 23 25 17 25 -14
0z"/>
<path d="M766 1323 c-6 -14 -5 -15 5 -6 7 7 10 15 7 18 -3 3 -9 -2 -12 -12z"/>
<path d="M950 1333 c0 -5 5 -15 10 -23 8 -12 10 -11 10 8 0 12 -4 22 -10 22
-5 0 -10 -3 -10 -7z"/>
<path d="M2470 1321 c0 -6 4 -13 10 -16 6 -3 7 1 4 9 -7 18 -14 21 -14 7z"/>
<path d="M832 1304 c-7 -8 -8 -14 -3 -14 10 0 25 19 20 25 -2 1 -10 -3 -17
-11z"/>
<path d="M947 1271 c-4 -17 -3 -21 5 -13 5 5 8 16 6 23 -3 8 -7 3 -11 -10z"/>
<path d="M684 1100 c-6 -28 -7 -50 -3 -50 7 0 23 89 17 96 -2 2 -9 -19 -14
-46z"/>
<path d="M2265 1140 c3 -5 8 -10 11 -10 2 0 4 5 4 10 0 6 -5 10 -11 10 -5 0
-7 -4 -4 -10z"/>
<path d="M2236 1123 c-6 -14 -5 -15 5 -6 7 7 10 15 7 18 -3 3 -9 -2 -12 -12z"/>
<path d="M646 1103 c-6 -14 -5 -15 5 -6 7 7 10 15 7 18 -3 3 -9 -2 -12 -12z"/>
<path d="M2517 1078 c-3 -18 -2 -36 2 -40 3 -4 7 11 9 33 3 47 -4 52 -11 7z"/>
<path d="M820 1090 c0 -6 6 -19 13 -30 10 -17 9 -22 -3 -30 -17 -11 -9 -13 14
-4 14 5 14 9 1 34 -8 15 -11 30 -8 34 4 3 1 6 -5 6 -7 0 -12 -5 -12 -10z"/>
<path d="M2217 1086 c-7 -17 11 -56 25 -55 10 0 10 2 1 6 -22 8 -15 41 10 45
20 3 20 4 -5 9 -16 4 -29 1 -31 -5z"/>
<path d="M2290 1093 c0 -5 4 -13 9 -18 5 -6 11 -19 14 -30 4 -18 5 -17 6 3 0
13 -6 30 -14 38 -8 9 -15 12 -15 7z"/>
<path d="M2581 1073 c-10 -26 -10 -27 4 -9 8 11 15 23 15 28 0 15 -7 8 -19
-19z"/>
<path d="M920 1069 c-7 -11 -10 -23 -7 -25 2 -2 9 7 15 21 14 30 7 33 -8 4z"/>
<path d="M989 1062 c-3 -20 -2 -29 4 -23 5 5 7 19 5 32 -3 20 -5 19 -9 -9z"/>
<path d="M2391 1068 c-6 -17 -4 -26 8 -35 9 -6 18 -9 21 -7 2 3 -2 9 -9 14 -8
4 -12 17 -8 29 7 28 -1 27 -12 -1z"/>
<path d="M766 1065 c-9 -26 -7 -32 5 -12 6 10 9 21 6 23 -2 3 -7 -2 -11 -11z"/>
<path d="M962 1055 c0 -16 2 -22 5 -12 2 9 2 23 0 30 -3 6 -5 -1 -5 -18z"/>
<path d="M2347 1061 c-3 -11 1 -22 8 -24 8 -4 10 3 7 19 -5 29 -8 30 -15 5z"/>
<path d="M2603 1064 c-3 -8 -1 -20 5 -26 7 -7 10 -2 9 16 -2 30 -5 32 -14 10z"/>
<path d="M2685 1070 c-3 -5 -1 -10 4 -10 6 0 11 5 11 10 0 6 -2 10 -4 10 -3 0
-8 -4 -11 -10z"/>
<path d="M2807 1073 c-9 -9 -9 -43 1 -43 4 0 8 11 8 25 2 27 1 29 -9 18z"/>
<path d="M726 1055 c-11 -8 -15 -15 -9 -15 6 0 16 7 23 15 16 19 11 19 -14 0z"/>
<path d="M2470 1051 c0 -6 4 -13 10 -16 6 -3 7 1 4 9 -7 18 -14 21 -14 7z"/>
<path d="M2760 1045 c0 -8 4 -15 10 -15 5 0 7 7 4 15 -4 8 -8 15 -10 15 -2 0
-4 -7 -4 -15z"/>
<path d="M2720 1040 c0 -5 5 -10 11 -10 5 0 7 5 4 10 -3 6 -8 10 -11 10 -2 0
-4 -4 -4 -10z"/>
<path d="M2683 1023 c-3 -10 -13 -26 -21 -36 -14 -16 -14 -17 0 -12 15 6 44
65 32 65 -2 0 -7 -8 -11 -17z"/>
<path d="M240 898 c-186 -94 -55 -326 156 -279 125 28 179 139 114 232 -49 68
-182 91 -270 47z m181 -8 c9 0 35 -17 58 -38 39 -36 41 -40 38 -86 -6 -65 -50
-111 -121 -125 -52 -10 -65 -10 -126 3 -46 10 -100 75 -100 121 0 48 26 91 68
111 41 20 142 34 157 22 5 -4 17 -8 26 -8z"/>
<path d="M225 802 c-9 -24 -5 -82 5 -82 6 0 10 7 10 15 0 9 12 26 27 39 15 13
23 28 19 34 -9 16 -54 11 -61 -6z m45 -6 c0 -2 -7 -9 -15 -16 -12 -10 -15 -10
-15 4 0 9 7 16 15 16 8 0 15 -2 15 -4z"/>
<path d="M296 778 c-4 -24 -3 -45 4 -52 7 -7 10 1 10 25 l0 34 21 -34 c11 -18
21 -32 23 -30 9 11 14 99 6 99 -5 0 -10 -12 -12 -27 l-4 -28 -14 28 c-18 37
-26 34 -34 -15z"/>
<path d="M396 801 c-10 -11 -16 -31 -14 -48 2 -23 8 -28 31 -29 30 -1 43 15
33 41 -3 9 -12 12 -23 8 -10 -4 -12 -8 -5 -11 17 -5 15 -22 -2 -22 -20 0 -29
16 -21 41 5 16 12 19 32 14 18 -4 24 -2 21 7 -7 21 -33 20 -52 -1z"/>
<path d="M640 886 c0 -2 7 -7 16 -10 8 -3 12 -2 9 4 -6 10 -25 14 -25 6z"/>
<path d="M692 860 c0 -14 2 -19 5 -12 2 6 2 18 0 25 -3 6 -5 1 -5 -13z"/>
<path d="M2230 848 c-29 -49 -27 -56 15 -38 17 7 17 9 3 9 -21 1 -22 5 -7 32
6 12 17 18 25 15 8 -3 14 -1 14 4 0 22 -32 8 -50 -22z"/>
<path d="M2526 853 c-13 -57 -14 -93 -4 -93 5 0 8 6 5 14 -3 7 -1 33 4 56 5
23 8 45 5 47 -2 2 -7 -8 -10 -24z"/>
<path d="M2575 846 c10 -14 19 -26 22 -26 7 0 -17 39 -28 46 -6 3 -3 -5 6 -20z"/>
<path d="M646 833 c-6 -14 -5 -15 5 -6 7 7 10 15 7 18 -3 3 -9 -2 -12 -12z"/>
<path d="M746 837 c3 -10 9 -15 12 -12 3 3 0 11 -7 18 -10 9 -11 8 -5 -6z"/>
<path d="M2290 827 c0 -9 5 -17 10 -17 6 0 11 -12 11 -27 2 -24 2 -25 6 -6 2
13 -3 33 -11 45 -13 18 -16 19 -16 5z"/>
<path d="M679 813 c0 -10 -2 -26 -4 -35 -2 -10 1 -18 6 -18 5 0 9 16 9 35 0
35 -9 50 -11 18z"/>
<path d="M929 813 c-13 -16 -12 -17 4 -4 16 13 21 21 13 21 -2 0 -10 -8 -17
-17z"/>
<path d="M992 800 c0 -19 2 -27 5 -17 2 9 2 25 0 35 -3 9 -5 1 -5 -18z"/>
<path d="M2396 808 c-16 -22 -6 -48 18 -48 6 0 6 4 -2 9 -17 10 -11 47 7 43 7
-1 10 2 6 8 -9 14 -12 13 -29 -12z"/>
<path d="M1021 804 c0 -11 3 -14 6 -6 3 7 2 16 -1 19 -3 4 -6 -2 -5 -13z"/>
<path d="M2450 809 c0 -5 5 -7 10 -4 6 3 10 8 10 11 0 2 -4 4 -10 4 -5 0 -10
-5 -10 -11z"/>
<path d="M2605 799 c-4 -12 -3 -25 2 -29 4 -5 8 4 9 21 1 34 -2 37 -11 8z"/>
<path d="M2687 807 c-3 -8 -1 -20 4 -28 6 -10 9 -7 9 14 0 29 -5 35 -13 14z"/>
<path d="M2802 795 c-9 -19 -9 -25 1 -25 6 0 13 11 13 25 2 31 0 31 -14 0z"/>
<path d="M767 795 c-4 -8 -3 -16 1 -19 4 -3 9 4 9 15 2 23 -3 25 -10 4z"/>
<path d="M878 798 c-7 -18 1 -38 15 -38 8 0 8 3 0 11 -6 6 -9 18 -6 25 3 8 3
14 0 14 -3 0 -7 -6 -9 -12z"/>
<path d="M960 810 c-1 -3 -3 -21 -6 -40 -2 -19 -12 -41 -21 -47 -15 -12 -16
-13 0 -13 17 0 43 71 33 93 -2 7 -5 10 -6 7z"/>
<path d="M2347 797 c-3 -8 -1 -20 4 -28 6 -10 9 -7 9 14 0 29 -5 35 -13 14z"/>
<path d="M2561 789 c-13 -10 -19 -19 -15 -19 13 1 48 29 43 34 -2 2 -15 -4
-28 -15z"/>
<path d="M2756 791 c-3 -5 2 -15 12 -22 15 -12 16 -12 5 2 -7 9 -10 19 -6 22
3 4 4 7 0 7 -3 0 -8 -4 -11 -9z"/>
<path d="M841 774 c0 -11 3 -14 6 -6 3 7 2 16 -1 19 -3 4 -6 -2 -5 -13z"/>
<path d="M1100 781 c0 -10 19 -25 25 -20 1 2 -3 10 -11 17 -8 7 -14 8 -14 3z"/>
<path d="M2222 780 c6 -19 37 -25 52 -10 8 8 7 10 -7 4 -9 -3 -25 0 -34 7 -14
12 -16 12 -11 -1z"/>
<path d="M2640 780 c8 -5 20 -10 25 -10 6 0 3 5 -5 10 -8 5 -19 10 -25 10 -5
0 -3 -5 5 -10z"/>
<path d="M2673 734 c-6 -13 -7 -24 -3 -24 9 0 25 39 18 45 -2 2 -8 -7 -15 -21z"/>
<path d="M695 608 c-14 -43 -22 -88 -16 -88 4 0 12 23 17 50 10 46 9 67 -1 38z"/>
<path d="M1122 600 c-12 -12 -22 -27 -22 -35 0 -7 -6 -16 -12 -18 -10 -4 -10
-6 0 -6 6 -1 12 -10 12 -20 0 -10 7 -22 16 -25 25 -10 29 -7 10 7 -10 8 -18
26 -18 41 0 30 29 69 45 59 6 -3 7 -1 3 5 -9 15 -8 16 -34 -8z"/>
<path d="M2226 576 c-17 -40 -12 -72 12 -81 14 -5 15 -4 5 6 -18 18 -16 60 3
87 8 12 10 22 5 22 -6 0 -17 -15 -25 -34z"/>
<path d="M2526 595 c-3 -9 -6 -26 -5 -38 1 -14 4 -9 9 13 9 37 7 52 -4 25z"/>
<path d="M736 587 c3 -10 9 -15 12 -12 3 3 0 11 -7 18 -10 9 -11 8 -5 -6z"/>
<path d="M820 556 c0 -8 5 -18 10 -21 6 -3 10 3 10 14 0 12 -4 21 -10 21 -5 0
-10 -6 -10 -14z"/>
<path d="M1170 557 c0 -9 5 -17 10 -17 6 0 11 -10 11 -22 1 -17 3 -18 6 -6 2
10 -3 28 -11 40 -13 18 -16 19 -16 5z"/>
<path d="M2290 565 c0 -6 4 -15 9 -20 5 -6 11 -19 14 -30 5 -20 5 -19 6 1 0
11 -6 29 -14 40 -8 10 -15 14 -15 9z"/>
<path d="M926 544 c-5 -14 -4 -15 9 -4 17 14 19 20 6 20 -5 0 -12 -7 -15 -16z"/>
<path d="M2049 543 c-13 -16 -12 -17 4 -4 16 13 21 21 13 21 -2 0 -10 -8 -17
-17z"/>
<path d="M2110 545 c0 -8 2 -15 4 -15 2 0 6 7 10 15 3 8 1 15 -4 15 -6 0 -10
-7 -10 -15z"/>
<path d="M2395 539 c-4 -12 -3 -25 2 -30 6 -6 9 -1 9 13 -1 14 4 22 12 20 8
-1 11 2 7 8 -10 16 -23 12 -30 -11z"/>
<path d="M2452 540 c-7 -11 -12 -25 -12 -32 0 -7 7 0 15 16 18 33 15 45 -3 16z"/>
<path d="M956 542 c-2 -4 -1 -14 5 -22 7 -12 9 -10 9 8 0 23 -5 28 -14 14z"/>
<path d="M992 525 c0 -16 2 -22 5 -12 2 9 2 23 0 30 -3 6 -5 -1 -5 -18z"/>
<path d="M1487 543 c-9 -9 -9 -43 1 -43 4 0 7 11 7 25 0 14 0 25 -1 25 0 0 -4
-3 -7 -7z"/>
<path d="M1683 535 c-3 -9 -3 -18 -1 -21 3 -3 8 4 11 16 6 23 -1 27 -10 5z"/>
<path d="M1996 533 c-4 -9 -3 -20 1 -24 4 -4 9 3 9 17 2 28 -1 31 -10 7z"/>
<path d="M2075 541 c-3 -5 -1 -12 5 -16 5 -3 10 1 10 9 0 18 -6 21 -15 7z"/>
<path d="M2352 525 c0 -16 2 -22 5 -12 2 9 2 23 0 30 -3 6 -5 -1 -5 -18z"/>
<path d="M2580 541 c0 -6 -15 -18 -32 -26 -18 -8 -26 -14 -17 -15 22 0 66 36
57 46 -5 4 -8 2 -8 -5z"/>
<path d="M2606 535 c-3 -8 -1 -15 4 -15 6 0 10 7 10 15 0 8 -2 15 -4 15 -2 0
-6 -7 -10 -15z"/>
<path d="M2685 540 c-3 -5 -1 -10 4 -10 6 0 11 5 11 10 0 6 -2 10 -4 10 -3 0
-8 -4 -11 -10z"/>
<path d="M2720 525 c0 -14 4 -25 9 -25 4 0 6 11 3 25 -2 14 -6 25 -8 25 -2 0
-4 -11 -4 -25z"/>
<path d="M2806 535 c-3 -9 -6 -22 -5 -28 0 -7 5 -1 10 12 5 13 8 26 5 28 -2 2
-6 -3 -10 -12z"/>
<path d="M721 520 c-13 -11 -19 -20 -14 -20 6 0 18 9 28 20 23 25 17 25 -14 0z"/>
<path d="M772 520 c0 -14 2 -19 5 -12 2 6 2 18 0 25 -3 6 -5 1 -5 -13z"/>
<path d="M1960 518 c0 -9 -6 -19 -12 -21 -10 -4 -10 -6 0 -6 14 -1 28 26 18
36 -3 4 -6 -1 -6 -9z"/>
<path d="M2470 521 c0 -6 4 -13 10 -16 6 -3 7 1 4 9 -7 18 -14 21 -14 7z"/>
<path d="M832 505 c-11 -12 -10 -15 3 -15 8 0 15 7 15 15 0 18 -2 18 -18 0z"/>
<path d="M877 509 c7 -7 15 -10 18 -7 3 3 -2 9 -12 12 -14 6 -15 5 -6 -5z"/>
<path d="M1020 510 c0 -5 5 -10 11 -10 5 0 7 5 4 10 -3 6 -8 10 -11 10 -2 0
-4 -4 -4 -10z"/>
<path d="M2147 509 c7 -7 15 -10 18 -7 3 3 -2 9 -12 12 -14 6 -15 5 -6 -5z"/>
<path d="M953 483 c-3 -10 -8 -22 -11 -27 -3 -5 0 -6 5 -3 11 7 25 47 17 47
-3 0 -7 -8 -11 -17z"/>
<path d="M1561 493 c-1 -6 -4 -20 -7 -30 -5 -17 -5 -17 6 0 6 10 9 23 6 30 -3
9 -5 9 -5 0z"/>
<path d="M2073 480 c-3 -11 -9 -20 -14 -20 -5 0 -9 -5 -9 -11 0 -18 27 8 33
31 3 11 3 20 0 20 -3 0 -7 -9 -10 -20z"/>
<path d="M2678 477 c-3 -19 -2 -25 4 -19 6 6 8 18 6 28 -3 14 -5 12 -10 -9z"/>
<path d="M242 469 c-146 -72 -109 -246 59 -280 162 -32 294 111 211 228 -50
71 -181 96 -270 52z m200 -10 c68 -34 102 -112 74 -168 -57 -110 -255 -125
-330 -24 -27 37 -25 117 4 148 60 64 172 83 252 44z"/>
<path d="M278 377 c-5 -10 -8 -29 -8 -42 0 -17 -7 -25 -22 -28 -21 -3 -21 -4
-5 -12 29 -12 49 15 45 61 -2 29 -5 34 -10 21z"/>
<path d="M305 373 c-9 -24 -6 -83 5 -83 6 0 10 6 10 13 0 6 12 23 26 36 13 13
23 29 21 35 -5 16 -55 15 -62 -1z m45 -7 c0 -2 -7 -9 -15 -16 -12 -10 -15 -10
-15 4 0 9 7 16 15 16 8 0 15 -2 15 -4z"/>
<path d="M386 371 c-10 -11 -16 -31 -14 -48 2 -24 8 -28 36 -31 29 -3 32 -1
32 22 0 21 -5 26 -22 25 -13 0 -17 -3 -10 -6 17 -7 15 -23 -3 -23 -9 0 -18 7
-21 15 -9 22 15 47 39 39 14 -4 18 -2 15 7 -7 22 -33 22 -52 0z"/>
<path d="M1760 339 c-6 -11 -10 -25 -8 -30 2 -5 8 4 15 21 13 34 9 40 -7 9z"/>
<path d="M690 335 c0 -8 0 -16 0 -17 -1 -2 -5 -20 -9 -41 -6 -25 -5 -39 3 -44
6 -3 8 -3 5 1 -4 4 -1 32 6 62 7 30 8 54 4 54 -5 0 -9 -7 -9 -15z"/>
<path d="M1123 338 c-17 -23 -25 -44 -9 -24 9 11 22 23 28 28 9 5 9 8 2 8 -6
0 -16 -6 -21 -12z"/>
<path d="M2247 343 c-3 -5 5 -8 18 -8 13 0 21 3 18 8 -2 4 -10 7 -18 7 -8 0
-16 -3 -18 -7z"/>
<path d="M1802 283 c-2 -32 -1 -56 1 -53 8 9 16 110 9 110 -4 0 -9 -26 -10
-57z"/>
<path d="M1854 321 c12 -13 16 -27 12 -38 -6 -14 -4 -15 4 -7 15 15 4 50 -17
59 -15 5 -14 3 1 -14z"/>
<path d="M742 308 c7 -15 15 -23 17 -17 2 6 -4 18 -13 27 -15 15 -15 15 -4
-10z"/>
<path d="M2576 317 c3 -10 9 -15 12 -12 3 3 0 11 -7 18 -10 9 -11 8 -5 -6z"/>
<path d="M646 303 c-6 -14 -5 -15 5 -6 7 7 10 15 7 18 -3 3 -9 -2 -12 -12z"/>
<path d="M2222 303 c-11 -22 -1 -66 16 -69 7 -1 8 0 2 3 -17 8 -11 41 8 46 15
4 15 5 -2 6 -12 1 -16 6 -12 16 8 21 -1 19 -12 -2z"/>
<path d="M2527 313 c-11 -20 -15 -59 -8 -71 5 -8 8 1 9 23 1 20 4 40 7 45 4 6
4 10 1 10 -3 0 -7 -3 -9 -7z"/>
<path d="M1170 295 c0 -8 4 -15 10 -15 5 0 7 7 4 15 -4 8 -8 15 -10 15 -2 0
-4 -7 -4 -15z"/>
<path d="M2296 301 c-5 -8 21 -71 29 -71 5 0 -7 44 -16 56 -5 6 -6 14 -2 17 3
4 4 7 0 7 -3 0 -8 -4 -11 -9z"/>
<path d="M820 285 c0 -8 4 -15 8 -15 5 0 9 7 9 15 0 8 -4 15 -9 15 -4 0 -8 -7
-8 -15z"/>
<path d="M994 286 c-3 -8 -4 -23 -2 -33 3 -11 6 -6 9 15 6 34 2 42 -7 18z"/>
<path d="M1940 291 c0 -6 4 -12 8 -15 5 -3 9 1 9 9 0 8 -4 15 -9 15 -4 0 -8
-4 -8 -9z"/>
<path d="M1693 277 c-19 -24 -24 -37 -14 -37 6 0 11 6 11 14 0 8 5 18 12 22 8
5 9 2 5 -9 -3 -10 -2 -17 3 -17 12 0 13 27 1 34 -5 3 -13 0 -18 -7z"/>
<path d="M1745 280 c-3 -5 -1 -10 4 -10 6 0 11 5 11 10 0 6 -2 10 -4 10 -3 0
-8 -4 -11 -10z"/>
<path d="M2045 280 c-3 -5 -1 -10 4 -10 6 0 11 5 11 10 0 6 -2 10 -4 10 -3 0
-8 -4 -11 -10z"/>
<path d="M2394 275 c-8 -20 2 -45 18 -45 10 0 10 2 -1 9 -8 5 -11 16 -6 30 7
24 -2 29 -11 6z"/>
<path d="M2450 269 c-7 -11 -10 -23 -7 -25 2 -2 9 7 15 21 14 30 7 33 -8 4z"/>
<path d="M2573 264 c-13 -14 -18 -24 -11 -22 10 4 45 48 37 48 -2 0 -14 -12
-26 -26z"/>
<path d="M2638 260 c-24 -28 -26 -39 -3 -22 10 7 38 52 32 52 -1 0 -14 -13
-29 -30z"/>
<path d="M876 263 c-6 -14 -5 -15 5 -6 7 7 10 15 7 18 -3 3 -9 -2 -12 -12z"/>
<path d="M957 273 c-3 -5 -1 -17 4 -28 7 -17 8 -17 8 8 1 27 -4 34 -12 20z"/>
<path d="M1228 263 c-3 -13 -2 -26 4 -29 14 -9 16 -2 8 26 -6 25 -6 25 -12 3z"/>
<path d="M1886 265 c-3 -8 -1 -15 4 -15 6 0 10 7 10 15 0 8 -2 15 -4 15 -2 0
-6 -7 -10 -15z"/>
<path d="M1996 263 c-4 -9 -3 -20 1 -24 4 -4 9 3 9 17 2 28 -1 31 -10 7z"/>
<path d="M2082 255 c0 -16 2 -22 5 -12 2 9 2 23 0 30 -3 6 -5 -1 -5 -18z"/>
<path d="M2352 255 c0 -16 2 -22 5 -12 2 9 2 23 0 30 -3 6 -5 -1 -5 -18z"/>
<path d="M2605 269 c-4 -6 -5 -12 -2 -15 2 -3 7 2 10 11 7 17 1 20 -8 4z"/>
<path d="M2685 270 c-3 -5 -1 -10 4 -10 6 0 11 5 11 10 0 6 -2 10 -4 10 -3 0
-8 -4 -11 -10z"/>
<path d="M720 254 c-17 -9 -20 -14 -9 -14 9 0 22 7 29 15 15 18 13 18 -20 -1z"/>
<path d="M1190 250 c0 -11 4 -20 9 -20 5 0 7 9 4 20 -3 11 -7 20 -9 20 -2 0
-4 -9 -4 -20z"/>
<path d="M2110 250 c-6 -11 -8 -20 -6 -20 3 0 10 9 16 20 6 11 8 20 6 20 -3 0
-10 -9 -16 -20z"/>
<path d="M833 241 c-10 -16 -9 -18 7 -14 11 3 16 11 13 19 -7 18 -6 18 -20 -5z"/>
<path d="M1021 253 c-2 -20 16 -24 30 -5 13 15 12 16 -3 4 -13 -10 -17 -10
-21 0 -4 9 -6 9 -6 1z"/>
<path d="M1103 250 c5 -18 35 -26 50 -11 7 7 3 8 -13 4 -13 -4 -26 0 -32 8 -8
12 -9 11 -5 -1z"/>
<path d="M1746 245 c4 -8 11 -15 16 -15 6 0 5 6 -2 15 -7 8 -14 15 -16 15 -2
0 -1 -7 2 -15z"/>
<path d="M2140 250 c0 -5 5 -10 11 -10 5 0 7 5 4 10 -3 6 -8 10 -11 10 -2 0
-4 -4 -4 -10z"/>
<path d="M2760 245 c0 -8 4 -15 10 -15 5 0 7 7 4 15 -4 8 -8 15 -10 15 -2 0
-4 -7 -4 -15z"/>
<path d="M2795 250 c-3 -5 1 -10 10 -10 9 0 13 5 10 10 -3 6 -8 10 -10 10 -2
0 -7 -4 -10 -10z"/>
<path d="M2720 240 c0 -5 5 -10 11 -10 5 0 7 5 4 10 -3 6 -8 10 -11 10 -2 0
-4 -4 -4 -10z"/>
<path d="M2681 214 c0 -11 3 -14 6 -6 3 7 2 16 -1 19 -3 4 -6 -2 -5 -13z"/>
<path d="M950 211 c0 -6 -10 -16 -22 -21 -16 -6 -18 -9 -7 -9 19 -1 45 26 35
36 -3 3 -6 1 -6 -6z"/>
<path d="M2048 183 c7 -3 16 -2 19 1 4 3 -2 6 -13 5 -11 0 -14 -3 -6 -6z"/>
</g>
</svg>
