<?xml version="1.0" standalone="no"?>
<!DOCTYPE svg PUBLIC "-//W3C//DTD SVG 20010904//EN"
 "http://www.w3.org/TR/2001/REC-SVG-20010904/DTD/svg10.dtd">
<svg version="1.0" xmlns="http://www.w3.org/2000/svg"
 width="512.000000pt" height="512.000000pt" viewBox="0 0 512.000000 512.000000"
 preserveAspectRatio="xMidYMid meet">

<g transform="translate(0.000000,512.000000) scale(0.100000,-0.100000)"
fill="#000000" stroke="none">
<path d="M1430 4938 c-125 -64 -165 -207 -158 -570 3 -161 1 -218 -8 -218 -6
0 -43 -16 -81 -35 -86 -43 -144 -103 -186 -193 l-32 -67 0 -495 0 -495 32 -67
c45 -96 128 -173 231 -214 1 -1 -12 -16 -29 -35 -54 -57 -109 -150 -129 -219
-11 -36 -76 -377 -146 -759 l-126 -695 57 -225 c62 -249 90 -316 162 -382 24
-22 74 -55 111 -72 l67 -32 805 0 805 0 67 32 c37 17 87 50 111 72 69 63 100
135 152 343 l47 186 136 4 c129 3 141 5 204 35 93 43 151 100 196 191 l37 76
3 368 3 368 176 0 c109 0 191 5 217 12 55 16 138 99 154 154 28 94 8 169 -63
240 -73 73 -91 76 -401 72 l-259 -3 -67 -32 c-93 -44 -151 -100 -196 -191
l-37 -76 -3 -368 -3 -368 -74 0 c-62 0 -75 3 -79 18 -3 9 -44 233 -91 497 -47
264 -93 503 -102 530 -24 76 -68 155 -118 209 -25 27 -44 49 -43 50 100 39
186 119 231 214 l32 67 0 495 0 495 -32 67 c-42 90 -100 150 -186 193 -38 19
-75 35 -81 35 -9 0 -11 57 -8 218 6 291 -14 416 -81 504 -83 110 -218 116
-347 15 -90 -71 -208 -243 -267 -388 -15 -38 -30 -69 -33 -69 -3 0 -18 31 -33
69 -59 145 -177 317 -267 388 -95 74 -188 92 -270 51z m145 -156 c74 -46 152
-152 226 -306 46 -98 90 -216 104 -283 l7 -33 -84 0 -84 0 -32 161 c-17 89
-34 164 -37 167 -5 5 -132 -16 -146 -24 -4 -2 6 -66 22 -141 15 -76 28 -144
29 -150 0 -9 -20 -13 -69 -13 l-69 0 -7 64 c-12 110 0 435 18 489 28 86 62
105 122 69z m947 -12 c32 -44 48 -152 48 -341 0 -97 -3 -197 -6 -223 l-7 -46
-68 0 c-49 0 -69 4 -69 13 1 6 14 74 29 150 16 75 26 139 22 141 -14 8 -141
29 -146 24 -3 -3 -20 -78 -37 -167 l-32 -161 -83 0 c-46 0 -83 4 -83 9 0 33
60 203 104 296 125 263 263 392 328 305z m192 -782 c55 -16 138 -99 154 -154
8 -29 12 -129 11 -325 l-1 -284 -44 214 c-55 271 -78 313 -204 378 -48 24 -66
28 -145 28 -89 0 -92 -1 -287 -79 l-198 -80 -197 79 c-174 70 -207 80 -273 83
-91 5 -165 -20 -228 -74 -72 -61 -88 -101 -136 -335 l-44 -214 -1 284 c-1 196
3 296 11 325 15 51 99 137 148 153 52 16 1378 17 1434 1z m-942 -383 c117 -47
219 -85 228 -85 9 0 112 39 230 86 196 78 220 86 268 82 55 -5 92 -25 124 -69
16 -21 88 -341 88 -391 0 -10 -25 -56 -57 -103 l-56 -85 -116 1 c-100 1 -111
3 -81 12 49 16 133 102 148 153 28 94 8 169 -63 239 -51 52 -102 75 -165 75
-63 0 -114 -23 -165 -75 -71 -70 -91 -145 -63 -239 15 -51 99 -137 148 -153
27 -9 -25 -11 -240 -11 -215 0 -267 2 -240 11 49 16 133 102 148 153 28 94 8
169 -63 239 -51 52 -102 75 -165 75 -124 0 -240 -116 -240 -240 0 -63 23 -114
75 -165 27 -28 66 -56 85 -62 30 -9 19 -11 -81 -12 l-116 -1 -56 85 c-32 47
-57 93 -57 103 0 44 71 366 86 391 25 42 80 70 137 71 36 0 96 -19 259 -85z
m-37 -270 c50 -49 15 -135 -55 -135 -41 0 -80 39 -80 80 0 41 39 80 80 80 19
0 40 -9 55 -25z m640 0 c50 -49 15 -135 -55 -135 -41 0 -80 39 -80 80 0 41 39
80 80 80 19 0 40 -9 55 -25z m-1050 -449 c9 -3 313 -6 675 -6 362 0 666 3 675
6 9 4 59 70 111 148 l94 141 0 -124 c0 -68 -5 -142 -12 -165 -16 -55 -99 -138
-154 -154 -31 -9 -215 -12 -714 -12 -499 0 -683 3 -714 12 -55 16 -138 99
-154 154 -7 23 -12 97 -12 165 l0 124 94 -141 c52 -78 102 -144 111 -148z
m1235 -362 c64 -31 150 -97 150 -115 0 -5 -283 -9 -710 -9 -427 0 -710 4 -710
9 0 30 144 123 217 140 21 5 252 9 513 8 l475 -2 65 -31z m-844 -296 c-59
-143 -38 -276 59 -373 65 -66 125 -90 225 -90 100 0 160 24 225 90 97 97 118
230 59 373 -5 9 49 12 249 12 235 0 256 -1 261 -17 3 -10 34 -182 70 -383 37
-201 68 -374 71 -385 4 -20 0 -20 -185 -17 l-190 4 0 -321 0 -321 143 0 c128
0 147 -2 192 -24 28 -13 61 -35 74 -50 l24 -26 -31 -121 c-33 -127 -55 -168
-115 -212 -18 -13 -47 -29 -66 -36 -49 -16 -1508 -16 -1563 1 -22 6 -62 32
-89 56 -52 46 -64 75 -104 240 l-17 73 23 26 c13 14 47 36 74 49 45 22 64 24
193 24 l142 0 0 321 0 321 -190 -3 c-185 -4 -189 -4 -185 16 3 11 34 184 71
385 36 201 67 373 70 383 5 16 26 17 261 17 200 0 254 -3 249 -12z m347 -2
c103 -43 128 -177 48 -257 -65 -65 -157 -65 -222 0 -124 123 13 325 174 257z
m2072 -91 c16 -15 25 -36 25 -55 0 -19 -9 -40 -25 -55 l-24 -25 -231 0 -231 0
-24 -25 -25 -24 0 -392 c0 -278 -4 -404 -12 -433 -17 -58 -99 -138 -158 -155
-26 -7 -86 -11 -145 -9 l-99 3 -7 35 c-4 19 -10 54 -14 77 l-6 43 116 0 c110
0 117 1 140 25 l25 24 0 392 c0 278 4 404 12 433 15 51 99 137 148 153 21 7
130 11 273 12 l238 1 24 -25z m-2855 -1014 l0 -158 -91 -5 c-79 -5 -101 -10
-160 -41 -65 -33 -69 -34 -64 -14 3 12 18 96 34 186 17 90 32 165 34 168 10 9
98 21 170 22 l77 1 0 -159z m1630 149 c30 -6 55 -12 57 -14 2 -2 17 -77 34
-167 16 -90 31 -174 34 -186 5 -20 1 -19 -64 14 -59 31 -81 36 -160 41 l-91 5
0 158 0 159 69 0 c37 0 92 -5 121 -10z"/>
<path d="M1600 1120 l0 -320 400 0 400 0 0 320 0 320 -400 0 -400 0 0 -320z
m640 0 l0 -160 -240 0 -240 0 0 160 0 160 240 0 240 0 0 -160z"/>
<path d="M1440 560 l0 -80 80 0 80 0 0 80 0 80 -80 0 -80 0 0 -80z"/>
<path d="M1760 560 l0 -80 80 0 80 0 0 80 0 80 -80 0 -80 0 0 -80z"/>
<path d="M2080 560 l0 -80 80 0 80 0 0 80 0 80 -80 0 -80 0 0 -80z"/>
<path d="M2400 560 l0 -80 80 0 80 0 0 80 0 80 -80 0 -80 0 0 -80z"/>
</g>
</svg>
